<?xml version="1.0" standalone="no"?>
<!DOCTYPE svg PUBLIC "-//W3C//DTD SVG 20010904//EN"
 "http://www.w3.org/TR/2001/REC-SVG-20010904/DTD/svg10.dtd">
<svg version="1.0" xmlns="http://www.w3.org/2000/svg"
 width="256.000000pt" height="256.000000pt" viewBox="0 0 256.000000 256.000000"
 preserveAspectRatio="xMidYMid meet">
<metadata>
Created by potrace 1.11, written by Peter Selinger 2001-2013
</metadata>
<g transform="translate(0.000000,256.000000) scale(0.100000,-0.100000)"
fill="#000000" stroke="none">
<path d="M1060 2506 c-3 -2 -36 -7 -75 -10 -176 -15 -365 -69 -502 -144 -129
-71 -226 -196 -240 -309 l-5 -46 32 23 c69 49 282 123 415 144 123 20 188 26
317 32 162 8 186 0 33 -10 -148 -10 -234 -19 -285 -30 -14 -3 -41 -8 -60 -11
-43 -6 -140 -30 -215 -53 -54 -17 -195 -85 -195 -94 0 -5 9 -6 21 -3 62 20
213 23 514 10 181 -7 439 -8 564 -2 73 4 86 8 109 31 19 18 26 35 25 61 -1 36
0 36 30 29 91 -20 176 7 250 80 34 33 55 46 76 46 36 0 41 -13 46 -114 8 -150
-62 -286 -202 -394 -41 -32 -153 -89 -189 -96 -11 -3 -27 -7 -36 -11 -17 -7
-18 2 -14 116 3 107 6 139 20 194 2 6 6 17 9 25 3 8 8 29 11 45 5 26 3 24 -19
-15 -46 -85 -59 -146 -59 -275 0 -104 4 -130 28 -200 45 -132 100 -219 208
-327 98 -99 126 -118 112 -75 -27 83 -32 112 -32 181 0 118 21 183 111 337 22
38 45 69 52 69 20 0 108 -73 147 -122 87 -107 130 -249 131 -438 1 -110 -8
-231 -22 -290 -9 -42 -10 -45 -18 -92 -3 -21 -11 -38 -17 -38 -12 0 -121 109
-227 228 -59 65 -65 70 -66 50 -1 -14 -9 -74 -23 -158 -5 -30 -11 -82 -15
-115 -3 -33 -9 -91 -13 -130 -3 -38 -6 -146 -6 -240 0 -131 5 -183 18 -227 22
-73 55 -102 106 -93 19 4 58 6 87 5 109 -3 144 43 169 215 5 31 5 301 1 345
-2 14 12 58 30 98 34 76 98 259 108 309 74 381 6 649 -222 868 l-62 61 14 47
c21 69 14 208 -13 277 -56 140 -202 224 -390 225 -85 0 -96 -2 -111 -22 -16
-19 -20 -20 -33 -7 -24 24 -136 41 -283 43 -78 1 -143 0 -145 -3z"/>
</g>
</svg>
